<svg width="43" height="43" viewBox="0 0 43 43" fill="none" xmlns="http://www.w3.org/2000/svg">
<path fill-rule="evenodd" clip-rule="evenodd" d="M21.0938 2.13696C10.4625 2.13696 1.84375 10.7557 1.84375 21.387C1.84375 32.0182 10.4625 40.637 21.0938 40.637C31.725 40.637 40.3438 32.0182 40.3438 21.387C40.3438 10.7557 31.725 2.13696 21.0938 2.13696ZM29.4377 18.132C29.5914 17.9563 29.7084 17.7518 29.7818 17.5303C29.8552 17.3088 29.8836 17.0748 29.8652 16.8422C29.8469 16.6096 29.7822 16.3829 29.675 16.1757C29.5678 15.9684 29.4202 15.7847 29.241 15.6353C29.0617 15.4859 28.8544 15.3739 28.6312 15.3058C28.408 15.2377 28.1734 15.215 27.9413 15.2389C27.7092 15.2628 27.4842 15.3329 27.2796 15.4451C27.0749 15.5572 26.8948 15.7092 26.7498 15.892L19.2248 24.9202L15.331 21.0247C15.0009 20.7059 14.5589 20.5295 14.1 20.5335C13.6412 20.5375 13.2023 20.7216 12.8778 21.046C12.5534 21.3705 12.3693 21.8094 12.3653 22.2683C12.3613 22.7271 12.5377 23.1692 12.8565 23.4992L18.1065 28.7492C18.2785 28.9211 18.4843 29.0552 18.711 29.1431C18.9376 29.2309 19.1801 29.2706 19.423 29.2596C19.6658 29.2486 19.9037 29.1871 20.1215 29.079C20.3392 28.9709 20.5321 28.8187 20.6877 28.632L29.4377 18.132Z" fill="#22B04A"/>
</svg>
